<?xml version="1.0" standalone="no"?>
<!DOCTYPE svg PUBLIC "-//W3C//DTD SVG 20010904//EN"
 "http://www.w3.org/TR/2001/REC-SVG-20010904/DTD/svg10.dtd">
<svg version="1.0" xmlns="http://www.w3.org/2000/svg"
 width="260.000000pt" height="260.000000pt" viewBox="0 0 260.000000 260.000000"
 preserveAspectRatio="xMidYMid meet">
<metadata>
Created by potrace 1.11, written by Peter Selinger 2001-2013
</metadata>
<g transform="translate(0.000000,260.000000) scale(0.100000,-0.100000)"
fill="#000000" stroke="none">
<path d="M485 2568 c-33 -19 -53 -48 -100 -143 -59 -117 -73 -177 -73 -305 0
-167 39 -306 122 -438 l33 -54 -62 -61 c-79 -79 -117 -137 -157 -234 -30 -72
-32 -86 -32 -193 0 -100 4 -124 26 -182 66 -166 193 -301 385 -409 l43 -24 0
-193 c0 -218 6 -239 70 -271 40 -20 75 -19 118 3 51 26 62 67 62 225 0 157 -3
152 70 131 19 -6 60 -12 90 -15 106 -11 94 8 100 -166 6 -171 14 -196 73 -220
42 -18 56 -18 97 2 59 29 64 47 70 219 l5 155 25 1 c30 2 117 14 145 21 11 2
35 7 53 9 l32 6 0 -141 c0 -77 4 -151 10 -166 37 -99 179 -106 224 -11 13 28
16 69 16 223 l0 188 84 48 c247 144 389 372 373 602 -10 138 -71 267 -183 383
l-64 66 30 73 c52 124 62 221 40 372 -16 104 -32 137 -74 157 -82 40 -160 -36
-135 -131 20 -78 26 -174 13 -240 -6 -36 -40 -115 -49 -115 -3 0 -32 12 -62
26 -61 27 -182 70 -223 78 -14 2 -47 9 -75 16 -27 6 -70 13 -95 16 -25 3 -54
7 -65 9 -11 2 -25 4 -30 4 -7 1 -10 63 -10 179 1 125 -2 185 -11 203 -16 32
-55 59 -86 59 -35 0 -84 -35 -95 -67 -5 -15 -9 -106 -8 -200 0 -95 -2 -173 -5
-174 -3 -1 -16 -2 -30 -4 -29 -3 -114 -14 -150 -19 -87 -13 -233 -59 -336
-107 -24 -10 -45 -19 -47 -19 -9 0 -66 102 -86 153 -28 77 -32 98 -38 203 -6
102 8 168 52 244 72 128 78 165 31 209 -28 26 -84 36 -111 19z m483 -1161
c109 -51 183 -172 177 -288 -5 -87 -64 -189 -133 -233 -126 -79 -274 -64 -377
40 -199 199 -38 532 245 506 25 -2 64 -13 88 -25z m880 12 c122 -40 202 -149
205 -279 4 -242 -267 -388 -467 -251 -60 42 -94 88 -116 158 -39 128 7 259
120 335 79 53 170 66 258 37z"/>
<path d="M1708 1226 c-16 -5 -28 -15 -28 -22 0 -7 -5 -14 -10 -16 -15 -5 -19
-57 -8 -91 11 -31 62 -63 93 -58 48 8 77 20 70 31 -3 4 2 11 11 14 8 3 13 10
9 15 -3 5 -1 12 4 15 6 4 6 18 1 36 -5 17 -6 30 -3 30 10 0 -51 50 -62 51 -38
5 -53 4 -77 -5z"/>
</g>
</svg>
